<svg width="114" height="148" viewBox="0 0 114 148" fill="none" xmlns="http://www.w3.org/2000/svg">
<g filter="url(#filter0_i_83_396)">
<path fill-rule="evenodd" clip-rule="evenodd" d="M32.9539 0.121989C34.0273 -0.00387347 35.0618 -0.0431068 35.989 0.0555829L36.6482 0.0907391C39.0253 0.247817 41.3641 0.743884 43.5945 1.56047C44.5201 1.86776 45.382 2.22556 46.1189 2.64543L46.7068 2.94621C48.8733 4.09439 50.8553 5.55452 52.5926 7.27531C53.2481 7.89045 53.8341 8.52088 54.3045 9.15129L54.7166 9.66593C56.3068 11.7059 57.5672 13.9786 58.4588 16.4003C58.7345 17.1008 58.9613 17.7852 59.1131 18.4355L59.2791 19.0751C60.0658 22.2794 60.2102 25.6103 59.7029 28.8749C59.1618 32.3573 57.8905 35.686 55.9724 38.6425C54.0544 41.5989 51.5334 44.1167 48.574 46.0302C45.6318 47.9325 42.3225 49.1955 38.8614 49.7366C38.8278 49.7418 38.7963 49.7188 38.791 49.6852C38.7855 49.6507 38.7525 49.6275 38.7182 49.6341C38.4615 49.6834 38.2039 49.7302 37.9453 49.7704C37.9311 49.7726 37.9178 49.7629 37.9155 49.7488C37.913 49.7337 37.8981 49.7239 37.8833 49.7277C37.5648 49.8093 37.2472 49.8939 36.9306 49.9818C36.3874 50.1325 36.1159 50.7352 36.3512 51.2476L74.584 134.489C74.757 134.865 74.5919 135.311 74.2153 135.484C73.8385 135.657 73.3927 135.492 73.2196 135.115L34.8346 51.5427C34.6242 51.0846 34.1017 50.8573 33.6267 51.0263C30.3387 52.2836 27.2033 53.9285 24.2908 55.9345C19.4843 59.245 15.3767 63.4703 12.2029 68.3681C9.02912 73.266 6.85058 78.7417 5.79275 84.4814C4.73499 90.2209 4.81872 96.1128 6.03786 101.82C7.25705 107.528 9.58771 112.94 12.8982 117.746C16.2088 122.553 20.4339 126.66 25.3318 129.834C30.2297 133.008 35.7055 135.185 41.4451 136.243C45.4618 136.983 49.5531 137.165 53.6036 136.79C56.4484 136.526 59.1773 138.353 59.6482 141.171L60.3427 145.327C60.3993 145.665 60.1779 145.988 59.8416 146.058C53.6089 147.309 47.1928 147.361 40.9373 146.208C34.4801 145.018 28.3206 142.568 22.8103 138.997C17.2999 135.426 12.5465 130.805 8.82204 125.397C8.56094 125.018 8.30567 124.636 8.05544 124.25C8.05 124.242 8.04427 124.234 8.03884 124.226C5.00408 119.82 2.84581 114.563 1.53103 109.317C1.47737 109.106 1.42569 108.893 1.37478 108.681C1.35334 108.59 1.33224 108.5 1.3113 108.41C1.23912 108.101 1.16964 107.791 1.10329 107.48C-0.268246 101.059 -0.362175 94.4308 0.827902 87.9735C2.018 81.5164 4.46834 75.3569 8.03884 69.8466C11.6095 64.3362 16.2309 59.5828 21.6384 55.8583C27.734 51.66 31.2869 43.818 28.1977 37.092L14.4156 7.08431C14.2426 6.7076 14.4076 6.26196 14.7843 6.08885C15.1611 5.9157 15.6069 6.08083 15.78 6.45766L33.6406 45.3449C34.6574 47.5586 37.15 48.6544 39.532 48.1445C39.6738 48.1126 39.8153 48.0789 39.9574 48.048C39.978 48.0436 39.9983 48.0569 40.0025 48.0775C40.0068 48.099 40.0284 48.1123 40.0495 48.1066C42.1126 47.55 44.0852 46.6869 45.8982 45.539C48.3784 43.9686 50.508 41.9025 52.1521 39.4706C53.7963 37.0387 54.9197 34.2929 55.4529 31.4062C55.986 28.5195 55.9167 25.5539 55.2498 22.6952C54.5828 19.8365 53.3325 17.1456 51.5769 14.7929C49.8213 12.4403 47.5982 10.4756 45.0476 9.02238C42.4971 7.56927 39.6736 6.65921 36.7547 6.34855C34.5661 6.11563 32.3592 6.22374 30.2119 6.66494C28.9848 6.91705 27.6995 6.35359 27.1895 5.20946L26.2352 3.06896C26.2297 3.05658 26.2154 3.05077 26.2029 3.05588C26.1899 3.06112 26.1753 3.05486 26.1701 3.04193L25.9325 2.45084C25.796 2.11123 25.9605 1.72441 26.3036 1.59714C28.446 0.802648 30.6839 0.308396 32.9539 0.121989ZM8.82204 71.661C8.45345 72.2299 8.10068 72.7935 7.76052 73.3525C7.99514 72.9738 8.22831 72.601 8.45876 72.2353L8.82204 71.661Z" fill="black"/>
<path d="M96.9998 92.9999C100.812 92.9999 104.267 94.5233 106.792 96.9945C110.926 101.042 112.536 107.192 113.052 112.955C113.344 116.225 112.99 119.52 112.009 122.653C111.028 125.786 109.439 128.696 107.334 131.215C105.229 133.734 102.648 135.813 99.739 137.335C96.83 138.856 93.6495 139.79 90.3797 140.083C87.159 140.371 83.9129 140.032 80.8223 139.084C80.7286 139.055 80.643 139.009 80.5679 138.946C80.4399 138.838 80.308 138.726 80.173 138.61C79.5184 138.05 80.528 136.643 81.3504 136.9C84.2024 137.793 87.2028 138.116 90.1795 137.85C93.156 137.583 96.0509 136.734 98.699 135.349C101.347 133.963 103.698 132.069 105.614 129.776C107.53 127.483 108.976 124.835 109.869 121.983C110.762 119.131 111.084 116.131 110.818 113.154C110.765 112.557 109.898 112.483 109.639 113.024C107.388 117.741 102.575 121 96.9998 121C89.2678 121 82.9998 114.732 82.9998 107C82.9998 99.2679 89.2678 92.9999 96.9998 92.9999Z" fill="black"/>
</g>
<defs>
<filter id="filter0_i_83_396" x="0" y="0" width="113.151" height="151.036" filterUnits="userSpaceOnUse" color-interpolation-filters="sRGB">
<feFlood flood-opacity="0" result="BackgroundImageFix"/>
<feBlend mode="normal" in="SourceGraphic" in2="BackgroundImageFix" result="shape"/>
<feColorMatrix in="SourceAlpha" type="matrix" values="0 0 0 0 0 0 0 0 0 0 0 0 0 0 0 0 0 0 127 0" result="hardAlpha"/>
<feOffset dy="4"/>
<feGaussianBlur stdDeviation="2"/>
<feComposite in2="hardAlpha" operator="arithmetic" k2="-1" k3="1"/>
<feColorMatrix type="matrix" values="0 0 0 0 0 0 0 0 0 0 0 0 0 0 0 0 0 0 0.25 0"/>
<feBlend mode="normal" in2="shape" result="effect1_innerShadow_83_396"/>
</filter>
</defs>
</svg>
