<svg width="937" height="141" viewBox="0 0 937 141" fill="none" xmlns="http://www.w3.org/2000/svg">
<g opacity="0.8" filter="url(#filter0_i_78_45)">
<path d="M45.6 3.60001C40.4 3.8 36.2 8.20001 36.2 13.4V127.2C36.2 132.4 40.4 136.8 45.6 137C46 137 46.4 137.4 46.4 137.8V139.6C46.4 140 46 140.2 45.6 140.2H0.6C0.2 140.2 1.19209e-07 140 1.19209e-07 139.6V137.8C1.19209e-07 137.4 0.2 137 0.6 137C5.8 136.8 10 132.4 10 127.2V13.4C10 8.20001 5.8 3.8 0.6 3.60001C0.2 3.60001 1.19209e-07 3.2 1.19209e-07 2.8V1C1.19209e-07 0.600009 0.2 0.4 0.6 0.4H45.6C46 0.4 46.4 0.600009 46.4 1V2.8C46.4 3.2 46 3.60001 45.6 3.60001Z" fill="black"/>
<path d="M173.661 0.200003C216.661 0.200003 230.061 30.8 230.061 70.2C230.061 109.4 216.461 140.2 173.861 140.2H123.061C122.661 140.2 122.461 140 122.461 139.6V137.6C122.461 137.4 122.661 137 123.061 137C128.261 136.8 132.461 132.4 132.461 127V13.4C132.461 8.20001 128.261 3.8 123.061 3.60001C122.661 3.60001 122.461 3.2 122.461 2.8V1C122.461 0.600009 122.661 0.200003 123.061 0.200003H173.661ZM173.861 137C217.061 136.8 211.461 3.40001 173.661 3.60001H158.661V137H173.861ZM341.008 124C342.008 124 343.808 123.8 343.608 124.8L340.808 139.8C340.608 140 340.408 140.2 340.008 140.2C304.608 140.2 269.208 140.2 233.608 140.2C233.208 140.2 233.008 140 233.008 139.6C233.008 138.8 232.808 137.6 233.208 137.2L233.408 137C236.408 136.6 238.008 136.2 240.208 134C242.008 132.2 243.008 129.8 243.008 127.2V13.6C243.008 9.20001 240.408 5.6 236.408 4.20001C235.608 4 233.408 3.60001 233.208 3.40001C232.808 3 233.008 1.80001 233.008 1C233.008 0.600009 233.208 0.4 233.608 0.4H340.008C340.408 0.4 340.608 0.600009 340.808 1L343.608 15.8C343.608 16.2 343.208 16.6 342.808 16.6C341.608 16.6 340.408 16.8 340.408 16C338.608 8.80001 332.408 3.60001 324.808 3.60001H270.008C269.608 3.60001 269.408 4 269.408 4.40001V68C269.408 68.4 269.608 68.6 270.008 68.6H305.608C308.808 68.6 311.408 66 311.408 62.8C311.408 62.4 311.808 62.2 312.208 62.2C313.408 62.2 315.008 61.8 315.008 63V70.4V77.8C315.008 78.2 314.808 78.4 314.408 78.4C313.208 78.4 311.408 78.8 311.408 77.8C311.408 74.6 308.808 72 305.608 72H270.008C269.608 72 269.408 72.2 269.408 72.6V136.4C269.408 136.8 269.608 137 270.008 137H324.808C332.408 137 338.608 132 340.408 124.6C340.408 124.2 340.608 124 341.008 124ZM472.838 0.200003C473.238 0.200003 473.638 0.600009 473.638 1V2.8C473.638 3.2 473.238 3.60001 472.838 3.60001C468.038 3.8 464.038 6.8 462.438 11.6L422.638 130C421.638 133 428.438 136.8 431.438 137C432.438 137 432.038 138.4 432.038 139.6C432.038 140 431.838 140.2 431.438 140.2H422.038C421.838 140.2 421.838 140.2 421.638 140.2C405.238 140.2 396.837 140.2 385.838 140.2C385.438 140.2 385.238 140 385.238 139.6C385.238 138.4 384.838 137 385.838 137C391.438 136.4 393.438 132.6 392.038 127.6L361.638 13.8C360.038 8.00001 354.838 3.8 348.838 3.60001C348.438 3.60001 348.238 3.2 348.238 2.8V1C348.238 0.600009 348.438 0.200003 348.838 0.200003H394.238C394.638 0.200003 394.838 0.600009 394.838 1V2.8C394.838 3.2 394.638 3.60001 394.238 3.60001C392.238 3.8 390.638 4.60001 389.438 6.20001C388.038 8.00001 387.638 10 388.238 12L418.838 126.4C419.038 126.8 419.238 127 419.638 127C419.838 127 420.238 126.8 420.238 126.4L459.838 9.20001C460.238 7.8 460.038 6.6 459.238 5.40001C458.437 4.40001 457.438 3.8 456.238 3.60001C455.838 3.60001 455.438 3.2 455.438 2.8V1C455.438 0.600009 455.838 0.200003 456.238 0.200003H472.838ZM587.102 124C588.102 124 589.902 123.8 589.702 124.8L586.902 139.8C586.702 140 586.502 140.2 586.102 140.2C550.702 140.2 515.302 140.2 479.702 140.2C479.302 140.2 479.102 140 479.102 139.6C479.102 138.8 478.902 137.6 479.302 137.2L479.502 137C482.502 136.6 484.102 136.2 486.302 134C488.102 132.2 489.102 129.8 489.102 127.2V13.6C489.102 9.20001 486.502 5.6 482.502 4.20001C481.702 4 479.502 3.60001 479.302 3.40001C478.902 3 479.102 1.80001 479.102 1C479.102 0.600009 479.302 0.4 479.702 0.4H586.102C586.502 0.4 586.702 0.600009 586.902 1L589.702 15.8C589.702 16.2 589.302 16.6 588.902 16.6C587.702 16.6 586.502 16.8 586.502 16C584.702 8.80001 578.502 3.60001 570.902 3.60001H516.102C515.702 3.60001 515.502 4 515.502 4.40001V68C515.502 68.4 515.702 68.6 516.102 68.6H551.702C554.902 68.6 557.502 66 557.502 62.8C557.502 62.4 557.902 62.2 558.302 62.2C559.502 62.2 561.102 61.8 561.102 63V70.4V77.8C561.102 78.2 560.902 78.4 560.502 78.4C559.302 78.4 557.502 78.8 557.502 77.8C557.502 74.6 554.902 72 551.702 72H516.102C515.702 72 515.502 72.2 515.502 72.6V136.4C515.502 136.8 515.702 137 516.102 137H570.902C578.502 137 584.702 132 586.502 124.6C586.502 124.2 586.702 124 587.102 124ZM704.331 124C704.731 124 705.131 124.4 705.131 124.8L702.131 139.8C702.131 140 701.931 140.2 701.531 140.2H595.131C594.731 140.2 594.531 140 594.531 139.6C594.531 138.4 594.131 137 595.131 137C600.531 136.6 604.531 132.4 604.531 127.2V13.4C604.531 8.20001 600.531 4 595.131 3.60001C594.131 3.60001 594.531 2.2 594.531 1C594.531 0.600009 594.731 0.4 595.131 0.4H640.331C641.131 0.4 640.931 1.60001 640.931 3C640.931 3.2 640.731 3.60001 640.331 3.60001C634.931 4 630.731 8.20001 630.731 13.4V136.2C630.731 136.6 631.131 137 631.531 137H686.331C693.731 137 700.131 131.8 701.931 124.6C701.931 123.8 703.131 124 704.331 124ZM783.972 65C787.772 64.2 788.372 70.2 788.172 72.4V73C788.172 73.2 787.972 73.4 787.572 73.4L775.772 72.8C775.172 72.8 774.572 73 773.972 73.2C773.772 73.4 773.772 73.4 773.572 73.6C773.372 74.2 773.372 74.8 773.572 75.4L775.372 84.2C776.172 88 770.172 88.6 767.972 88.4H767.572C767.172 88.4 766.972 88.2 766.972 87.8L767.572 76C767.572 75.4 767.572 74.8 767.172 74.2C767.172 74 766.972 73.8 766.772 73.8C766.172 73.6 765.572 73.6 764.972 73.8L756.372 75.6C752.572 76.4 751.972 70.4 751.972 68.2V67.8C751.972 67.4 752.372 67.2 752.572 67.2L764.372 67.8C765.172 67.8 765.772 67.6 766.172 67.4C766.372 67.4 766.572 67.2 766.572 67C766.772 66.4 766.772 65.8 766.772 65.2L764.772 56.4C763.972 52.6 769.972 52 772.372 52.2H772.772C772.972 52.2 773.172 52.4 773.172 52.8L772.572 64.6C772.572 65.2 772.772 66 772.972 66.4C773.172 66.6 773.172 66.8 773.372 66.8C773.972 67 774.572 67 775.372 66.8L783.972 65ZM770.172 0.4C808.772 0.4 839.972 31.6 839.972 70.4C839.972 109 808.772 140.4 770.172 140.4C731.572 140.4 700.372 109 700.372 70.4C700.372 31.6 731.572 0.4 770.172 0.4ZM770.172 137C794.172 137 813.572 107.2 813.572 70.4C813.572 33.4 794.172 3.60001 770.172 3.60001C745.972 3.60001 726.572 33.4 726.572 70.4C726.572 107.2 745.972 137 770.172 137ZM906.778 0.200003C922.978 0.200003 936.178 13.6 936.178 29.8C936.178 45.8 922.978 59.2 906.778 59.2H879.378C878.578 59.2 877.978 59.6 877.978 60.4V127C877.978 132.4 882.178 136.8 887.578 137C888.378 137 888.178 138.4 888.178 139.6C888.178 140.6 886.778 140.2 885.378 140.2C870.978 140.2 856.778 140.2 842.378 140.2C841.378 140.2 841.778 138.8 841.778 137.8C841.778 137.4 841.978 137 842.378 137C847.578 136.8 851.778 132.4 851.778 127V13.4C851.778 8.20001 847.578 3.8 842.378 3.60001C841.378 3.60001 841.778 2.2 841.778 1C841.778 5.24521e-06 843.178 0.200003 844.578 0.200003C863.178 0.200003 885.578 0.200003 906.778 0.200003ZM887.578 55.8C917.978 55.8 917.378 3.60001 887.578 3.60001H879.378C878.578 3.60001 877.978 4 877.978 4.8V54.6C877.978 55.4 878.578 55.8 879.378 55.8H887.578Z" fill="url(#paint0_linear_78_45)"/>
</g>
<defs>
<filter id="filter0_i_78_45" x="0" y="0" width="936.178" height="144.6" filterUnits="userSpaceOnUse" color-interpolation-filters="sRGB">
<feFlood flood-opacity="0" result="BackgroundImageFix"/>
<feBlend mode="normal" in="SourceGraphic" in2="BackgroundImageFix" result="shape"/>
<feColorMatrix in="SourceAlpha" type="matrix" values="0 0 0 0 0 0 0 0 0 0 0 0 0 0 0 0 0 0 127 0" result="hardAlpha"/>
<feOffset dy="4"/>
<feGaussianBlur stdDeviation="2"/>
<feComposite in2="hardAlpha" operator="arithmetic" k2="-1" k3="1"/>
<feColorMatrix type="matrix" values="0 0 0 0 0 0 0 0 0 0 0 0 0 0 0 0 0 0 0.25 0"/>
<feBlend mode="normal" in2="shape" result="effect1_innerShadow_78_45"/>
</filter>
<linearGradient id="paint0_linear_78_45" x1="-7.39844" y1="84.7" x2="938.602" y2="84.7" gradientUnits="userSpaceOnUse">
<stop stop-color="#F2D24B"/>
<stop offset="1" stop-color="#1E7F98"/>
</linearGradient>
</defs>
</svg>
