<svg width="744" height="142" viewBox="0 0 744 142" fill="none" xmlns="http://www.w3.org/2000/svg">
<g filter="url(#filter0_i_78_46)">
<path d="M45.6 4.80002C40.4 5.00002 36.2 9.40002 36.2 14.6V128.4C36.2 133.6 40.4 138 45.6 138.2C46 138.2 46.4 138.6 46.4 139V140.8C46.4 141.2 46 141.4 45.6 141.4H0.6C0.2 141.4 1.19209e-07 141.2 1.19209e-07 140.8V139C1.19209e-07 138.6 0.2 138.2 0.6 138.2C5.8 138 10 133.6 10 128.4V14.6C10 9.40002 5.8 5.00002 0.6 4.80002C0.2 4.80002 1.19209e-07 4.40001 1.19209e-07 4.00002V2.20002C1.19209e-07 1.80002 0.2 1.60001 0.6 1.60001H45.6C46 1.60001 46.4 1.80002 46.4 2.20002V4.00002C46.4 4.40001 46 4.80002 45.6 4.80002Z" fill="black"/>
<path d="M173.661 1.40001C216.661 1.40001 230.061 32 230.061 71.4C230.061 110.6 216.461 141.4 173.861 141.4H123.061C122.661 141.4 122.461 141.2 122.461 140.8V138.8C122.461 138.6 122.661 138.2 123.061 138.2C128.261 138 132.461 133.6 132.461 128.2V14.6C132.461 9.40002 128.261 5.00002 123.061 4.80002C122.661 4.80002 122.461 4.40001 122.461 4.00002V2.20002C122.461 1.80002 122.661 1.40001 123.061 1.40001H173.661ZM173.861 138.2C217.061 138 211.461 4.60002 173.661 4.80002H158.661V138.2H173.861ZM341.008 125.2C342.008 125.2 343.808 125 343.608 126L340.808 141C340.608 141.2 340.408 141.4 340.008 141.4C304.608 141.4 269.208 141.4 233.608 141.4C233.208 141.4 233.008 141.2 233.008 140.8C233.008 140 232.808 138.8 233.208 138.4L233.408 138.2C236.408 137.8 238.008 137.4 240.208 135.2C242.008 133.4 243.008 131 243.008 128.4V14.8C243.008 10.4 240.408 6.80002 236.408 5.40002C235.608 5.20001 233.408 4.80002 233.208 4.60002C232.808 4.20001 233.008 3.00002 233.008 2.20002C233.008 1.80002 233.208 1.60001 233.608 1.60001H340.008C340.408 1.60001 340.608 1.80002 340.808 2.20002L343.608 17C343.608 17.4 343.208 17.8 342.808 17.8C341.608 17.8 340.408 18 340.408 17.2C338.608 10 332.408 4.80002 324.808 4.80002H270.008C269.608 4.80002 269.408 5.20001 269.408 5.60002V69.2C269.408 69.6 269.608 69.8 270.008 69.8H305.608C308.808 69.8 311.408 67.2 311.408 64C311.408 63.6 311.808 63.4 312.208 63.4C313.408 63.4 315.008 63 315.008 64.2V71.6V79C315.008 79.4 314.808 79.6 314.408 79.6C313.208 79.6 311.408 80 311.408 79C311.408 75.8 308.808 73.2 305.608 73.2H270.008C269.608 73.2 269.408 73.4 269.408 73.8V137.6C269.408 138 269.608 138.2 270.008 138.2H324.808C332.408 138.2 338.608 133.2 340.408 125.8C340.408 125.4 340.608 125.2 341.008 125.2ZM375.038 24.2C365.838 70.2 444.838 48 444.838 100C444.838 123 423.038 141.4 396.238 141.4C377.638 141.4 354.838 131.2 347.638 113.2C347.438 112.8 347.638 112.6 347.838 112.4L367.638 98.6C368.038 98.4 368.238 98.4 368.438 98.6C368.638 98.6 368.838 98.8 368.838 99.2C367.638 125.6 378.838 138.8 398.438 137.6C411.838 136.8 421.038 120.6 416.838 106C407.438 73.4 347.638 92.4 347.638 43C347.638 20 369.438 1.40001 396.238 1.40001C414.838 1.40001 437.638 11.8 444.838 29.8C445.038 30.2 444.838 30.4 444.638 30.6L424.638 44.4C424.438 44.6 424.238 44.6 424.038 44.4C423.838 44.4 423.638 44.2 423.638 43.8C424.838 17.4 413.638 4.20001 394.038 5.40002C384.438 6.00002 377.238 14.2 375.038 24.2ZM492.866 4.80002C487.666 5.00002 483.466 9.40002 483.466 14.6V128.4C483.466 133.6 487.666 138 492.866 138.2C493.266 138.2 493.666 138.6 493.666 139V140.8C493.666 141.2 493.266 141.4 492.866 141.4H447.866C447.466 141.4 447.266 141.2 447.266 140.8V139C447.266 138.6 447.466 138.2 447.866 138.2C453.066 138 457.266 133.6 457.266 128.4V14.6C457.266 9.40002 453.066 5.00002 447.866 4.80002C447.466 4.80002 447.266 4.40001 447.266 4.00002V2.20002C447.266 1.80002 447.466 1.60001 447.866 1.60001H492.866C493.266 1.60001 493.666 1.80002 493.666 2.20002V4.00002C493.666 4.40001 493.266 4.80002 492.866 4.80002ZM618.87 138.2C619.27 138.2 619.47 138.6 619.47 139V140.8C619.47 141.2 619.27 141.4 618.87 141.4H597.47C594.27 141.4 592.67 141.6 590.87 138.8L584.27 129.8C584.27 129.6 584.07 129.6 583.87 129.6C583.67 129.4 583.47 129.6 583.27 129.6C574.47 136.8 563.87 141 552.47 141C521.27 141 496.07 109.6 496.07 71C496.07 27.4 525.67 2.60002 554.67 1.00002C570.27 2.09808e-05 590.87 6.60002 600.87 19.8C603.67 22.8 605.87 26.2 607.47 30.2C607.67 30.4 607.47 30.8 607.27 31L588.67 43.8C588.47 44 588.27 44 588.07 43.8C587.67 43.8 587.47 43.6 587.47 43.4C588.47 22.8 581.47 5.20001 561.27 4.80002C532.47 4.40001 522.27 48.6 522.27 71C522.27 106 540.07 134.4 562.27 134.4C569.87 134.4 576.87 131.2 582.87 125.4C583.07 125.2 583.27 125 583.27 124.8V103.2C583.27 86.8 569.87 73.4 553.67 73.2C553.27 73.2 552.87 72.8 552.87 72.4V70.6C552.87 70.2 553.27 69.8 553.67 69.8H608.67C609.07 69.8 609.47 70.2 609.47 70.6V128.4C609.47 133.6 613.67 138 618.87 138.2ZM742.781 4.80002C737.581 5.00002 733.381 9.40002 733.381 14.6V128.8C733.381 134 737.181 138 742.581 138.2C742.981 138.2 743.181 138.6 743.181 139C743.181 140 743.581 141.4 742.581 141.4H703.781C703.381 141.4 703.181 141.2 702.981 141L640.581 8.00001C640.181 7.20002 639.181 7.40002 639.181 8.20002V128.2C639.181 133.6 643.381 138 648.581 138.2C648.981 138.2 649.181 138.6 649.181 139C649.181 140 649.581 141.4 648.581 141.4H628.381C627.181 141.4 625.781 141.8 625.781 140.8C625.781 139.6 625.381 138.2 626.381 138.2C631.581 138 635.781 133.6 635.781 128.2V11.6C635.781 5.00002 631.981 4.80002 629.581 4.80002C628.981 4.80002 628.381 4.60002 628.381 4.00002C628.381 2.80002 628.181 1.40001 629.181 1.40001C641.381 1.40001 653.381 1.40001 665.581 1.40001C665.781 1.40001 665.981 1.60001 666.181 2.00002L728.781 135C728.981 135.6 730.181 135.4 730.181 134.6V14.6C730.181 9.40002 725.981 5.00002 720.581 4.80002C720.181 4.80002 719.981 4.40001 719.981 4.00002C719.981 2.80002 719.781 1.40001 720.781 1.40001H740.781C741.981 1.40001 743.581 1.20002 743.581 2.20002C743.581 3.40001 743.781 4.80002 742.781 4.80002Z" fill="url(#paint0_linear_78_46)"/>
</g>
<defs>
<filter id="filter0_i_78_46" x="0" y="0" width="743.781" height="145.8" filterUnits="userSpaceOnUse" color-interpolation-filters="sRGB">
<feFlood flood-opacity="0" result="BackgroundImageFix"/>
<feBlend mode="normal" in="SourceGraphic" in2="BackgroundImageFix" result="shape"/>
<feColorMatrix in="SourceAlpha" type="matrix" values="0 0 0 0 0 0 0 0 0 0 0 0 0 0 0 0 0 0 127 0" result="hardAlpha"/>
<feOffset dy="4"/>
<feGaussianBlur stdDeviation="2"/>
<feComposite in2="hardAlpha" operator="arithmetic" k2="-1" k3="1"/>
<feColorMatrix type="matrix" values="0 0 0 0 0 0 0 0 0 0 0 0 0 0 0 0 0 0 0.25 0"/>
<feBlend mode="normal" in2="shape" result="effect1_innerShadow_78_46"/>
</filter>
<linearGradient id="paint0_linear_78_46" x1="-33.3906" y1="85.9" x2="746.609" y2="85.9" gradientUnits="userSpaceOnUse">
<stop stop-color="#0F5C6D"/>
<stop offset="1" stop-color="#F2D24B"/>
</linearGradient>
</defs>
</svg>
