<svg width="402" height="874" viewBox="0 0 402 874" fill="none" xmlns="http://www.w3.org/2000/svg" xmlns:xlink="http://www.w3.org/1999/xlink">
<rect width="402" height="874" fill="#020617"/>
<g id="Repeat group 2_inner" data-figma-trr="r4u1-0f">
<g filter="url(#filter0_d_49_1056)">
<path d="M155.909 84.3083C157.641 90.7948 155.963 98.0027 150.874 103.092C145.786 108.18 138.579 109.857 132.093 108.126C132.405 107.825 132.717 107.525 133.029 107.224C138.967 101.499 144.904 95.7719 150.842 90.046C151.172 89.7279 151.503 89.4097 151.833 89.0917L151.126 88.3845C150.807 88.7144 150.489 89.0449 150.171 89.3748C144.445 95.3128 138.719 101.25 132.993 107.188C132.692 107.5 132.391 107.812 132.091 108.123C130.36 101.638 132.037 94.4312 137.126 89.343C142.214 84.2542 149.422 82.5761 155.909 84.3083Z" fill="#0DA26E"/>
</g>
</g>
<use xlink:href="#Repeat%20group%202_inner" transform="translate(259 -29.0015) rotate(90)"/>
<use xlink:href="#Repeat%20group%202_inner" transform="translate(288.001 229.998) rotate(-180)"/>
<use xlink:href="#Repeat%20group%202_inner" transform="translate(29.0015 259) rotate(-90)"/>
<path d="M92.6289 132.672C89.9089 132.672 87.2689 132.336 84.7089 131.664C82.1489 130.992 80.0689 130.096 78.4689 128.976L81.5889 121.968C83.0929 122.96 84.8369 123.76 86.8209 124.368C88.8049 124.976 90.7569 125.28 92.6769 125.28C96.3249 125.28 98.1489 124.368 98.1489 122.544C98.1489 121.584 97.6209 120.88 96.5649 120.432C95.5409 119.952 93.8769 119.456 91.5729 118.944C89.0449 118.4 86.9329 117.824 85.2369 117.216C83.5409 116.576 82.0849 115.568 80.8689 114.192C79.6529 112.816 79.0449 110.96 79.0449 108.624C79.0449 106.576 79.6049 104.736 80.7249 103.104C81.8449 101.44 83.5089 100.128 85.7169 99.168C87.9569 98.208 90.6929 97.728 93.9249 97.728C96.1329 97.728 98.3089 97.984 100.453 98.496C102.597 98.976 104.485 99.696 106.117 100.656L103.189 107.712C99.9889 105.984 96.8849 105.12 93.8769 105.12C91.9889 105.12 90.6129 105.408 89.7489 105.984C88.8849 106.528 88.4529 107.248 88.4529 108.144C88.4529 109.04 88.9649 109.712 89.9889 110.16C91.0129 110.608 92.6609 111.072 94.9329 111.552C97.4929 112.096 99.6049 112.688 101.269 113.328C102.965 113.936 104.421 114.928 105.637 116.304C106.885 117.648 107.509 119.488 107.509 121.824C107.509 123.84 106.949 125.664 105.829 127.296C104.709 128.928 103.029 130.24 100.789 131.232C98.5489 132.192 95.8289 132.672 92.6289 132.672Z" fill="white"/>
<path d="M198.104 132.672C194.584 132.672 191.416 131.936 188.6 130.464C185.816 128.96 183.624 126.88 182.024 124.224C180.424 121.568 179.624 118.56 179.624 115.2C179.624 111.84 180.424 108.832 182.024 106.176C183.624 103.52 185.816 101.456 188.6 99.984C191.416 98.48 194.584 97.728 198.104 97.728C201.176 97.728 203.944 98.272 206.408 99.36C208.872 100.448 210.92 102.016 212.552 104.064L206.504 109.536C204.328 106.912 201.688 105.6 198.584 105.6C196.76 105.6 195.128 106 193.688 106.8C192.28 107.6 191.176 108.736 190.376 110.208C189.608 111.648 189.224 113.312 189.224 115.2C189.224 117.088 189.608 118.768 190.376 120.24C191.176 121.68 192.28 122.8 193.688 123.6C195.128 124.4 196.76 124.8 198.584 124.8C201.688 124.8 204.328 123.488 206.504 120.864L212.552 126.336C210.92 128.384 208.872 129.952 206.408 131.04C203.944 132.128 201.176 132.672 198.104 132.672ZM230.182 105.744V124.656H235.606V132H215.206V124.656H220.678V105.744H215.206V98.4H235.606V105.744H230.182ZM269.639 129.456C267.911 130.448 265.815 131.232 263.351 131.808C260.887 132.384 258.327 132.672 255.671 132.672C252.087 132.672 249.031 132.24 246.503 131.376C244.007 130.512 242.119 129.312 240.839 127.776C239.591 126.24 238.967 124.464 238.967 122.448C238.967 120.688 239.447 119.136 240.407 117.792C241.367 116.448 242.695 115.408 244.391 114.672C243.079 114 242.071 113.072 241.367 111.888C240.695 110.672 240.359 109.344 240.359 107.904C240.359 106.048 240.935 104.352 242.087 102.816C243.271 101.28 245.063 100.048 247.463 99.12C249.863 98.192 252.823 97.728 256.343 97.728C258.551 97.728 260.727 97.936 262.871 98.352C265.015 98.768 266.903 99.328 268.535 100.032L265.943 107.136C262.967 105.824 259.895 105.168 256.727 105.168C254.455 105.168 252.759 105.472 251.639 106.08C250.519 106.656 249.959 107.472 249.959 108.528C249.959 110.448 251.351 111.408 254.135 111.408H263.639V118.656H253.511C251.879 118.656 250.647 118.928 249.815 119.472C248.983 119.984 248.567 120.752 248.567 121.776C248.567 122.864 249.175 123.712 250.391 124.32C251.607 124.928 253.495 125.232 256.055 125.232C257.879 125.232 259.751 124.992 261.671 124.512C263.623 124 265.319 123.312 266.759 122.448L269.639 129.456ZM298.864 108.96C296.048 107.392 293.184 106.352 290.272 105.84V132H280.768V105.84C277.792 106.352 274.928 107.392 272.176 108.96L269.008 102.048C271.344 100.64 273.92 99.568 276.736 98.832C279.584 98.096 282.512 97.728 285.52 97.728C288.528 97.728 291.44 98.096 294.256 98.832C297.104 99.568 299.696 100.64 302.032 102.048L298.864 108.96ZM335.927 98.4V121.2C335.927 124.592 335.255 127.504 333.911 129.936C332.567 132.336 330.647 134.144 328.151 135.36C325.687 136.608 322.759 137.232 319.367 137.232C316.391 137.232 313.687 136.848 311.255 136.08C308.855 135.344 306.791 134.288 305.063 132.912L308.615 126.048C310.151 127.168 311.799 128.016 313.559 128.592C315.319 129.168 317.127 129.456 318.983 129.456C321.543 129.456 323.415 128.832 324.599 127.584C325.815 126.336 326.423 124.384 326.423 121.728V120.192C324.279 122.784 321.255 124.08 317.351 124.08C313.127 124.08 309.879 122.88 307.607 120.48C305.335 118.048 304.199 114.576 304.199 110.064V98.4H313.703V109.44C313.703 111.712 314.215 113.424 315.239 114.576C316.295 115.696 317.815 116.256 319.799 116.256C321.815 116.256 323.415 115.664 324.599 114.48C325.815 113.296 326.423 111.456 326.423 108.96V98.4H335.927Z" fill="white"/>
<path d="M86.052 387H80.484L75.428 364.664H80.228L82.34 375.384L83.524 381.592H83.62L85.028 375.384L87.492 364.664H92.804L95.3 375.384L96.676 381.592H96.772L97.956 375.384L100.1 364.664H104.708L99.524 387H93.988L91.172 374.904L90.084 370.008H89.988L88.868 374.904L86.052 387ZM114.06 387.384C112.353 387.384 110.892 387.032 109.676 386.328C108.481 385.603 107.564 384.579 106.924 383.256C106.305 381.933 105.996 380.376 105.996 378.584C105.996 376.813 106.294 375.277 106.892 373.976C107.51 372.653 108.406 371.629 109.58 370.904C110.753 370.179 112.182 369.816 113.868 369.816C115.724 369.816 117.217 370.221 118.348 371.032C119.5 371.821 120.342 372.867 120.876 374.168C121.409 375.469 121.676 376.877 121.676 378.392V379.8H110.892V380.056C110.892 381.165 111.19 382.051 111.788 382.712C112.406 383.352 113.345 383.672 114.604 383.672C115.606 383.672 116.406 383.469 117.004 383.064C117.622 382.659 118.198 382.189 118.732 381.656L121.1 384.6C120.353 385.453 119.372 386.136 118.156 386.648C116.961 387.139 115.596 387.384 114.06 387.384ZM113.964 373.304C113.324 373.304 112.769 373.453 112.3 373.752C111.852 374.029 111.5 374.424 111.244 374.936C111.009 375.448 110.892 376.056 110.892 376.76V377.016H116.78V376.728C116.78 376.045 116.673 375.448 116.46 374.936C116.268 374.424 115.958 374.029 115.532 373.752C115.126 373.453 114.604 373.304 113.964 373.304ZM131.869 387H129.725C128.103 387 126.909 386.605 126.141 385.816C125.394 385.027 125.021 383.885 125.021 382.392V363.32H129.757V383.32H131.869V387ZM141.492 387.384C138.975 387.384 137.033 386.595 135.668 385.016C134.324 383.416 133.652 381.272 133.652 378.584C133.652 375.896 134.324 373.763 135.668 372.184C137.033 370.605 138.975 369.816 141.492 369.816C143.199 369.816 144.617 370.2 145.748 370.968C146.9 371.736 147.721 372.813 148.212 374.2L144.372 375.864C144.223 375.224 143.913 374.68 143.444 374.232C142.975 373.784 142.324 373.56 141.492 373.56C140.532 373.56 139.807 373.88 139.316 374.52C138.825 375.139 138.58 375.981 138.58 377.048V380.184C138.58 381.229 138.825 382.072 139.316 382.712C139.807 383.352 140.532 383.672 141.492 383.672C142.431 383.672 143.124 383.416 143.572 382.904C144.041 382.392 144.393 381.805 144.628 381.144L148.308 382.744C147.753 384.344 146.889 385.517 145.716 386.264C144.543 387.011 143.135 387.384 141.492 387.384ZM157.899 387.384C156.256 387.384 154.848 387.032 153.675 386.328C152.502 385.603 151.595 384.579 150.955 383.256C150.336 381.933 150.027 380.376 150.027 378.584C150.027 376.771 150.336 375.213 150.955 373.912C151.595 372.611 152.502 371.608 153.675 370.904C154.848 370.179 156.256 369.816 157.899 369.816C159.542 369.816 160.95 370.179 162.123 370.904C163.296 371.608 164.192 372.611 164.811 373.912C165.451 375.213 165.771 376.771 165.771 378.584C165.771 380.376 165.451 381.933 164.811 383.256C164.192 384.579 163.296 385.603 162.123 386.328C160.95 387.032 159.542 387.384 157.899 387.384ZM157.899 383.64C158.838 383.64 159.563 383.352 160.075 382.776C160.587 382.179 160.843 381.357 160.843 380.312V376.888C160.843 375.821 160.587 375 160.075 374.424C159.563 373.848 158.838 373.56 157.899 373.56C156.982 373.56 156.256 373.848 155.723 374.424C155.211 375 154.955 375.821 154.955 376.888V380.312C154.955 381.357 155.211 382.179 155.723 382.776C156.256 383.352 156.982 383.64 157.899 383.64ZM173.882 387H169.146V370.2H173.882V373.048H174.074C174.372 372.152 174.884 371.395 175.61 370.776C176.356 370.136 177.348 369.816 178.586 369.816C179.738 369.816 180.719 370.104 181.53 370.68C182.34 371.256 182.927 372.099 183.29 373.208H183.385C183.684 372.269 184.292 371.469 185.21 370.808C186.127 370.147 187.226 369.816 188.506 369.816C190.127 369.816 191.364 370.403 192.218 371.576C193.092 372.728 193.53 374.36 193.53 376.472V387H188.794V376.856C188.794 375.768 188.602 374.968 188.218 374.456C187.855 373.923 187.279 373.656 186.49 373.656C186.02 373.656 185.572 373.752 185.146 373.944C184.719 374.115 184.367 374.381 184.09 374.744C183.834 375.107 183.706 375.565 183.706 376.12V387H178.97V376.856C178.97 375.768 178.778 374.968 178.394 374.456C178.01 373.923 177.434 373.656 176.666 373.656C176.218 373.656 175.78 373.752 175.354 373.944C174.927 374.115 174.575 374.381 174.298 374.744C174.02 375.107 173.882 375.565 173.882 376.12V387ZM204.747 387.384C203.041 387.384 201.579 387.032 200.363 386.328C199.169 385.603 198.251 384.579 197.611 383.256C196.993 381.933 196.683 380.376 196.683 378.584C196.683 376.813 196.982 375.277 197.579 373.976C198.198 372.653 199.094 371.629 200.267 370.904C201.441 370.179 202.87 369.816 204.555 369.816C206.411 369.816 207.905 370.221 209.035 371.032C210.187 371.821 211.03 372.867 211.563 374.168C212.097 375.469 212.363 376.877 212.363 378.392V379.8H201.579V380.056C201.579 381.165 201.878 382.051 202.475 382.712C203.094 383.352 204.033 383.672 205.291 383.672C206.294 383.672 207.094 383.469 207.691 383.064C208.31 382.659 208.886 382.189 209.419 381.656L211.787 384.6C211.041 385.453 210.059 386.136 208.843 386.648C207.649 387.139 206.283 387.384 204.747 387.384ZM204.651 373.304C204.011 373.304 203.457 373.453 202.987 373.752C202.539 374.029 202.187 374.424 201.931 374.936C201.697 375.448 201.579 376.056 201.579 376.76V377.016H207.467V376.728C207.467 376.045 207.361 375.448 207.147 374.936C206.955 374.424 206.646 374.029 206.219 373.752C205.814 373.453 205.291 373.304 204.651 373.304Z" fill="#F8FAFC"/>
<path d="M82.7067 418H75.304V403.109H75.7733V417.573H82.7067V418ZM88.7808 418.256C87.8422 418.256 87.0386 418.043 86.3702 417.616C85.7017 417.189 85.1897 416.556 84.8342 415.717C84.4786 414.878 84.3008 413.84 84.3008 412.603C84.3008 411.351 84.4786 410.313 84.8342 409.488C85.1897 408.649 85.7017 408.016 86.3702 407.589C87.0386 407.163 87.8422 406.949 88.7808 406.949C89.7195 406.949 90.5231 407.163 91.1915 407.589C91.8599 408.016 92.3719 408.649 92.7275 409.488C93.0831 410.313 93.2608 411.351 93.2608 412.603C93.2608 413.84 93.0831 414.878 92.7275 415.717C92.3719 416.556 91.8599 417.189 91.1915 417.616C90.5231 418.043 89.7195 418.256 88.7808 418.256ZM88.7808 417.851C90.0608 417.851 91.0422 417.424 91.7248 416.571C92.4217 415.717 92.7702 414.565 92.7702 413.115V412.091C92.7702 410.64 92.4217 409.488 91.7248 408.635C91.0422 407.781 90.0608 407.355 88.7808 407.355C87.5008 407.355 86.5124 407.781 85.8155 408.635C85.1328 409.488 84.7915 410.64 84.7915 412.091V413.115C84.7915 414.565 85.1328 415.717 85.8155 416.571C86.5124 417.424 87.5008 417.851 88.7808 417.851ZM100.344 418.256C99.4057 418.256 98.595 418.043 97.9123 417.616C97.2439 417.189 96.7248 416.556 96.355 415.717C95.9994 414.878 95.8217 413.84 95.8217 412.603C95.8217 411.365 95.9994 410.327 96.355 409.488C96.7106 408.649 97.2154 408.016 97.8697 407.589C98.5381 407.163 99.3346 406.949 100.259 406.949C101.127 406.949 101.887 407.17 102.542 407.611C103.196 408.037 103.708 408.656 104.078 409.467C104.447 410.263 104.632 411.216 104.632 412.325V412.539H96.3123V413.115C96.3123 414.565 96.6608 415.717 97.3577 416.571C98.0688 417.424 99.0643 417.851 100.344 417.851C101.255 417.851 102.023 417.63 102.648 417.189C103.274 416.734 103.751 416.073 104.078 415.205L104.462 415.355C104.149 416.236 103.644 416.94 102.947 417.467C102.25 417.993 101.383 418.256 100.344 418.256ZM100.259 407.355C99.4199 407.355 98.7017 407.547 98.1043 407.931C97.5212 408.315 97.0732 408.862 96.7603 409.573C96.4617 410.284 96.3123 411.124 96.3123 412.091V412.133H104.142V412.048C104.142 411.095 103.978 410.27 103.651 409.573C103.324 408.876 102.869 408.336 102.286 407.952C101.717 407.554 101.041 407.355 100.259 407.355ZM108.605 418H108.157V407.205H108.605V409.061H108.669C108.839 408.72 109.06 408.414 109.33 408.144C109.6 407.86 109.956 407.632 110.397 407.461C110.838 407.291 111.385 407.205 112.039 407.205H112.914V407.611H111.975C111.392 407.611 110.845 407.717 110.333 407.931C109.821 408.144 109.401 408.471 109.074 408.912C108.761 409.339 108.605 409.886 108.605 410.555V418ZM122.361 418V416.379H122.297C122.112 416.862 121.742 417.296 121.188 417.68C120.647 418.064 119.893 418.256 118.926 418.256C117.717 418.256 116.793 417.908 116.153 417.211C115.527 416.5 115.214 415.476 115.214 414.139V407.205H115.662V414.053C115.662 415.362 115.947 416.322 116.516 416.933C117.099 417.545 117.916 417.851 118.969 417.851C119.566 417.851 120.121 417.744 120.633 417.531C121.145 417.317 121.557 416.997 121.87 416.571C122.197 416.13 122.361 415.582 122.361 414.928V407.205H122.809V418H122.361ZM127.73 418H127.282V407.205H127.73V408.827H127.794C127.993 408.343 128.348 407.909 128.86 407.525C129.372 407.141 130.105 406.949 131.058 406.949C131.939 406.949 132.672 407.156 133.255 407.568C133.838 407.966 134.236 408.556 134.45 409.339H134.535C134.734 408.642 135.125 408.073 135.708 407.632C136.291 407.177 137.081 406.949 138.076 406.949C139.285 406.949 140.203 407.298 140.828 407.995C141.454 408.692 141.767 409.716 141.767 411.067V418H141.319V411.131C141.319 409.822 141.035 408.869 140.466 408.272C139.911 407.66 139.1 407.355 138.034 407.355C137.451 407.355 136.91 407.468 136.412 407.696C135.915 407.909 135.509 408.236 135.196 408.677C134.898 409.104 134.748 409.652 134.748 410.32V418H134.3V411.131C134.3 409.822 134.016 408.869 133.447 408.272C132.878 407.66 132.067 407.355 131.015 407.355C130.446 407.355 129.906 407.461 129.394 407.675C128.896 407.888 128.491 408.215 128.178 408.656C127.879 409.083 127.73 409.623 127.73 410.277V418ZM151.287 403.643C151.102 403.643 150.974 403.6 150.903 403.515C150.832 403.415 150.796 403.308 150.796 403.195V403.045C150.796 402.932 150.832 402.832 150.903 402.747C150.974 402.647 151.102 402.597 151.287 402.597C151.472 402.597 151.6 402.647 151.671 402.747C151.742 402.832 151.777 402.932 151.777 403.045V403.195C151.777 403.308 151.742 403.415 151.671 403.515C151.6 403.6 151.472 403.643 151.287 403.643ZM151.073 418V407.205H151.521V418H151.073ZM156.011 422.267V407.205H156.459V408.869H156.523C156.75 408.4 157.149 407.966 157.718 407.568C158.301 407.156 159.069 406.949 160.022 406.949C160.974 406.949 161.785 407.163 162.454 407.589C163.122 408.002 163.634 408.628 163.99 409.467C164.359 410.306 164.544 411.351 164.544 412.603C164.544 413.854 164.359 414.9 163.99 415.739C163.634 416.578 163.122 417.211 162.454 417.637C161.785 418.05 160.974 418.256 160.022 418.256C159.069 418.256 158.301 418.057 157.718 417.659C157.149 417.246 156.75 416.805 156.523 416.336H156.459V422.267H156.011ZM160.022 417.851C161.316 417.851 162.311 417.431 163.008 416.592C163.705 415.739 164.054 414.58 164.054 413.115V412.091C164.054 410.626 163.705 409.474 163.008 408.635C162.311 407.781 161.316 407.355 160.022 407.355C159.396 407.355 158.813 407.476 158.272 407.717C157.732 407.959 157.291 408.3 156.95 408.741C156.622 409.168 156.459 409.673 156.459 410.256V414.949C156.459 415.518 156.622 416.023 156.95 416.464C157.291 416.905 157.732 417.246 158.272 417.488C158.813 417.73 159.396 417.851 160.022 417.851ZM170.868 418.256C170 418.256 169.24 418.1 168.585 417.787C167.945 417.474 167.376 416.969 166.879 416.272L167.263 416.016C167.76 416.684 168.287 417.161 168.841 417.445C169.41 417.716 170.086 417.851 170.868 417.851C171.878 417.851 172.646 417.637 173.172 417.211C173.712 416.77 173.983 416.151 173.983 415.355C173.983 414.544 173.748 413.947 173.279 413.563C172.824 413.179 172.148 412.916 171.252 412.773L170.313 412.624C169.688 412.524 169.14 412.368 168.671 412.155C168.216 411.927 167.86 411.621 167.604 411.237C167.362 410.839 167.241 410.327 167.241 409.701C167.241 408.791 167.568 408.108 168.223 407.653C168.891 407.184 169.702 406.949 170.655 406.949C171.28 406.949 171.814 407.028 172.255 407.184C172.696 407.326 173.072 407.518 173.385 407.76C173.712 407.988 173.99 408.236 174.217 408.507L173.876 408.805C173.549 408.436 173.144 408.101 172.66 407.803C172.191 407.504 171.529 407.355 170.676 407.355C169.78 407.355 169.055 407.554 168.5 407.952C167.96 408.35 167.689 408.926 167.689 409.68C167.689 410.476 167.91 411.06 168.351 411.429C168.806 411.785 169.488 412.041 170.399 412.197L171.337 412.347C172.276 412.489 173.023 412.788 173.577 413.243C174.146 413.684 174.431 414.38 174.431 415.333C174.431 415.945 174.281 416.471 173.983 416.912C173.698 417.353 173.293 417.687 172.767 417.915C172.24 418.142 171.608 418.256 170.868 418.256ZM184.861 418V416.379H184.797C184.612 416.862 184.242 417.296 183.688 417.68C183.147 418.064 182.393 418.256 181.426 418.256C180.217 418.256 179.293 417.908 178.653 417.211C178.027 416.5 177.714 415.476 177.714 414.139V407.205H178.162V414.053C178.162 415.362 178.447 416.322 179.016 416.933C179.599 417.545 180.416 417.851 181.469 417.851C182.066 417.851 182.621 417.744 183.133 417.531C183.645 417.317 184.057 416.997 184.37 416.571C184.697 416.13 184.861 415.582 184.861 414.928V407.205H185.309V418H184.861ZM190.23 418H189.782V407.205H190.23V408.827H190.294C190.493 408.343 190.848 407.909 191.36 407.525C191.872 407.141 192.605 406.949 193.558 406.949C194.439 406.949 195.172 407.156 195.755 407.568C196.338 407.966 196.736 408.556 196.95 409.339H197.035C197.234 408.642 197.625 408.073 198.208 407.632C198.791 407.177 199.581 406.949 200.576 406.949C201.785 406.949 202.703 407.298 203.328 407.995C203.954 408.692 204.267 409.716 204.267 411.067V418H203.819V411.131C203.819 409.822 203.535 408.869 202.966 408.272C202.411 407.66 201.6 407.355 200.534 407.355C199.951 407.355 199.41 407.468 198.912 407.696C198.415 407.909 198.009 408.236 197.696 408.677C197.398 409.104 197.248 409.652 197.248 410.32V418H196.8V411.131C196.8 409.822 196.516 408.869 195.947 408.272C195.378 407.66 194.567 407.355 193.515 407.355C192.946 407.355 192.406 407.461 191.894 407.675C191.396 407.888 190.991 408.215 190.678 408.656C190.379 409.083 190.23 409.623 190.23 410.277V418ZM213.787 403.643C213.602 403.643 213.474 403.6 213.403 403.515C213.332 403.415 213.296 403.308 213.296 403.195V403.045C213.296 402.932 213.332 402.832 213.403 402.747C213.474 402.647 213.602 402.597 213.787 402.597C213.972 402.597 214.1 402.647 214.171 402.747C214.242 402.832 214.277 402.932 214.277 403.045V403.195C214.277 403.308 214.242 403.415 214.171 403.515C214.1 403.6 213.972 403.643 213.787 403.643ZM213.573 418V407.205H214.021V418H213.573ZM221.306 418.256C220.438 418.256 219.677 418.1 219.023 417.787C218.383 417.474 217.814 416.969 217.316 416.272L217.7 416.016C218.198 416.684 218.724 417.161 219.279 417.445C219.848 417.716 220.523 417.851 221.306 417.851C222.315 417.851 223.083 417.637 223.61 417.211C224.15 416.77 224.42 416.151 224.42 415.355C224.42 414.544 224.186 413.947 223.716 413.563C223.261 413.179 222.586 412.916 221.69 412.773L220.751 412.624C220.125 412.524 219.578 412.368 219.108 412.155C218.653 411.927 218.298 411.621 218.042 411.237C217.8 410.839 217.679 410.327 217.679 409.701C217.679 408.791 218.006 408.108 218.66 407.653C219.329 407.184 220.139 406.949 221.092 406.949C221.718 406.949 222.251 407.028 222.692 407.184C223.133 407.326 223.51 407.518 223.823 407.76C224.15 407.988 224.427 408.236 224.655 408.507L224.314 408.805C223.986 408.436 223.581 408.101 223.098 407.803C222.628 407.504 221.967 407.355 221.114 407.355C220.218 407.355 219.492 407.554 218.938 407.952C218.397 408.35 218.127 408.926 218.127 409.68C218.127 410.476 218.347 411.06 218.788 411.429C219.243 411.785 219.926 412.041 220.836 412.197L221.775 412.347C222.714 412.489 223.46 412.788 224.015 413.243C224.584 413.684 224.868 414.38 224.868 415.333C224.868 415.945 224.719 416.471 224.42 416.912C224.136 417.353 223.73 417.687 223.204 417.915C222.678 418.142 222.045 418.256 221.306 418.256ZM241.812 418H240.169C240.027 418 239.906 417.979 239.807 417.936C239.721 417.893 239.657 417.829 239.615 417.744C239.572 417.644 239.551 417.524 239.551 417.381V416.144L239.764 416.357H239.487C239.216 416.869 238.804 417.317 238.249 417.701C237.709 418.071 236.941 418.256 235.945 418.256C234.836 418.256 233.976 417.993 233.364 417.467C232.767 416.94 232.468 416.194 232.468 415.227C232.468 414.629 232.589 414.096 232.831 413.627C233.087 413.157 233.506 412.795 234.089 412.539C234.687 412.268 235.497 412.133 236.521 412.133H239.551V410.555C239.551 409.445 239.288 408.635 238.761 408.123C238.249 407.611 237.488 407.355 236.479 407.355C235.668 407.355 234.992 407.518 234.452 407.845C233.926 408.158 233.513 408.67 233.215 409.381L232.831 409.211C233.129 408.514 233.563 407.966 234.132 407.568C234.701 407.156 235.483 406.949 236.479 406.949C237.659 406.949 238.541 407.255 239.124 407.867C239.707 408.478 239.999 409.353 239.999 410.491V417.595H241.812V418ZM239.551 412.517H236.543C235.277 412.517 234.36 412.738 233.791 413.179C233.236 413.62 232.959 414.196 232.959 414.907V415.547C232.959 416.286 233.236 416.855 233.791 417.253C234.36 417.652 235.078 417.851 235.945 417.851C236.585 417.851 237.176 417.744 237.716 417.531C238.271 417.303 238.712 416.969 239.039 416.528C239.38 416.073 239.551 415.511 239.551 414.843V412.517ZM252.796 418H250.556C250.343 418 250.186 417.95 250.087 417.851C249.987 417.751 249.938 417.595 249.938 417.381V407.611H247.911V407.205H249.447C249.646 407.205 249.774 407.163 249.831 407.077C249.902 406.992 249.938 406.857 249.938 406.672V404.133H250.386V407.205H252.967V407.611H250.386V417.595H252.796V418ZM259.574 418.256C258.635 418.256 257.824 418.043 257.142 417.616C256.473 417.189 255.954 416.556 255.584 415.717C255.229 414.878 255.051 413.84 255.051 412.603C255.051 411.365 255.229 410.327 255.584 409.488C255.94 408.649 256.445 408.016 257.099 407.589C257.767 407.163 258.564 406.949 259.488 406.949C260.356 406.949 261.117 407.17 261.771 407.611C262.425 408.037 262.937 408.656 263.307 409.467C263.677 410.263 263.862 411.216 263.862 412.325V412.539H255.542V413.115C255.542 414.565 255.89 415.717 256.587 416.571C257.298 417.424 258.294 417.851 259.574 417.851C260.484 417.851 261.252 417.63 261.878 417.189C262.503 416.734 262.98 416.073 263.307 415.205L263.691 415.355C263.378 416.236 262.873 416.94 262.176 417.467C261.479 417.993 260.612 418.256 259.574 418.256ZM259.488 407.355C258.649 407.355 257.931 407.547 257.334 407.931C256.75 408.315 256.302 408.862 255.99 409.573C255.691 410.284 255.542 411.124 255.542 412.091V412.133H263.371V412.048C263.371 411.095 263.207 410.27 262.88 409.573C262.553 408.876 262.098 408.336 261.515 407.952C260.946 407.554 260.27 407.355 259.488 407.355ZM265.663 418L269.674 412.56L265.77 407.205H266.282L269.93 412.219H269.972L273.62 407.205H274.132L270.228 412.56L274.239 418H273.727L269.972 412.901H269.93L266.175 418H265.663ZM280.484 418H278.244C278.03 418 277.874 417.95 277.774 417.851C277.675 417.751 277.625 417.595 277.625 417.381V407.611H275.598V407.205H277.134C277.333 407.205 277.461 407.163 277.518 407.077C277.589 406.992 277.625 406.857 277.625 406.672V404.133H278.073V407.205H280.654V407.611H278.073V417.595H280.484V418ZM293.09 418H288.055V417.595H290.338V403.515H288.055V403.109H293.09V403.515H290.807V417.595H293.09V418ZM308.949 418V416.336H308.885C308.657 416.805 308.252 417.246 307.669 417.659C307.1 418.057 306.339 418.256 305.386 418.256C304.447 418.256 303.637 418.05 302.954 417.637C302.286 417.211 301.766 416.578 301.397 415.739C301.041 414.9 300.863 413.854 300.863 412.603C300.863 411.351 301.041 410.306 301.397 409.467C301.766 408.628 302.286 408.002 302.954 407.589C303.637 407.163 304.447 406.949 305.386 406.949C306.339 406.949 307.1 407.156 307.669 407.568C308.252 407.966 308.657 408.4 308.885 408.869H308.949V402.213H309.397V418H308.949ZM305.386 417.851C306.012 417.851 306.595 417.73 307.135 417.488C307.676 417.246 308.11 416.905 308.437 416.464C308.778 416.023 308.949 415.518 308.949 414.949V410.256C308.949 409.673 308.778 409.168 308.437 408.741C308.11 408.3 307.676 407.959 307.135 407.717C306.595 407.476 306.012 407.355 305.386 407.355C304.092 407.355 303.096 407.781 302.399 408.635C301.702 409.474 301.354 410.626 301.354 412.091V413.115C301.354 414.58 301.702 415.739 302.399 416.592C303.096 417.431 304.092 417.851 305.386 417.851ZM317.406 418.256C316.467 418.256 315.664 418.043 314.995 417.616C314.327 417.189 313.815 416.556 313.459 415.717C313.104 414.878 312.926 413.84 312.926 412.603C312.926 411.351 313.104 410.313 313.459 409.488C313.815 408.649 314.327 408.016 314.995 407.589C315.664 407.163 316.467 406.949 317.406 406.949C318.345 406.949 319.148 407.163 319.817 407.589C320.485 408.016 320.997 408.649 321.353 409.488C321.708 410.313 321.886 411.351 321.886 412.603C321.886 413.84 321.708 414.878 321.353 415.717C320.997 416.556 320.485 417.189 319.817 417.616C319.148 418.043 318.345 418.256 317.406 418.256ZM317.406 417.851C318.686 417.851 319.667 417.424 320.35 416.571C321.047 415.717 321.395 414.565 321.395 413.115V412.091C321.395 410.64 321.047 409.488 320.35 408.635C319.667 407.781 318.686 407.355 317.406 407.355C316.126 407.355 315.137 407.781 314.441 408.635C313.758 409.488 313.417 410.64 313.417 412.091V413.115C313.417 414.565 313.758 415.717 314.441 416.571C315.137 417.424 316.126 417.851 317.406 417.851ZM325.855 418H325.407V407.205H325.855V408.827H325.919C326.118 408.343 326.488 407.909 327.028 407.525C327.568 407.141 328.322 406.949 329.289 406.949C330.498 406.949 331.416 407.298 332.041 407.995C332.681 408.692 333.001 409.716 333.001 411.067V418H332.553V411.152C332.553 409.844 332.262 408.884 331.679 408.272C331.11 407.66 330.299 407.355 329.247 407.355C328.649 407.355 328.095 407.461 327.583 407.675C327.071 407.888 326.651 408.215 326.324 408.656C326.011 409.083 325.855 409.623 325.855 410.277V418ZM340.546 418H338.306C338.093 418 337.936 417.95 337.837 417.851C337.737 417.751 337.688 417.595 337.688 417.381V407.611H335.661V407.205H337.197C337.396 407.205 337.524 407.163 337.581 407.077C337.652 406.992 337.688 406.857 337.688 406.672V404.133H338.136V407.205H340.717V407.611H338.136V417.595H340.546V418ZM75.24 446V430.213H75.688V439.621V441.307H75.752L77.4587 439.621L81.8747 435.205H82.472L77.8853 439.771L83.048 446H82.4933L77.5653 440.091L75.688 441.947V446H75.24ZM86.1463 446H85.6983V435.205H86.1463V436.827H86.2103C86.4094 436.343 86.7792 435.909 87.3197 435.525C87.8601 435.141 88.6139 434.949 89.581 434.949C90.7899 434.949 91.7072 435.298 92.333 435.995C92.973 436.692 93.293 437.716 93.293 439.067V446H92.845V439.152C92.845 437.844 92.5534 436.884 91.9703 436.272C91.4014 435.66 90.5908 435.355 89.5383 435.355C88.941 435.355 88.3863 435.461 87.8743 435.675C87.3623 435.888 86.9428 436.215 86.6157 436.656C86.3028 437.083 86.1463 437.623 86.1463 438.277V446ZM101.073 446.256C100.134 446.256 99.3303 446.043 98.6618 445.616C97.9934 445.189 97.4814 444.556 97.1258 443.717C96.7703 442.878 96.5925 441.84 96.5925 440.603C96.5925 439.351 96.7703 438.313 97.1258 437.488C97.4814 436.649 97.9934 436.016 98.6618 435.589C99.3303 435.163 100.134 434.949 101.073 434.949C102.011 434.949 102.815 435.163 103.483 435.589C104.152 436.016 104.664 436.649 105.019 437.488C105.375 438.313 105.553 439.351 105.553 440.603C105.553 441.84 105.375 442.878 105.019 443.717C104.664 444.556 104.152 445.189 103.483 445.616C102.815 446.043 102.011 446.256 101.073 446.256ZM101.073 445.851C102.353 445.851 103.334 445.424 104.017 444.571C104.713 443.717 105.062 442.565 105.062 441.115V440.091C105.062 438.64 104.713 437.488 104.017 436.635C103.334 435.781 102.353 435.355 101.073 435.355C99.7925 435.355 98.8041 435.781 98.1072 436.635C97.4245 437.488 97.0832 438.64 97.0832 440.091V441.115C97.0832 442.565 97.4245 443.717 98.1072 444.571C98.8041 445.424 99.7925 445.851 101.073 445.851ZM110.865 446L107.58 435.205H108.049L110.076 441.925L111.121 445.424H111.185L112.273 441.925L114.343 435.205H114.812L116.881 441.925L117.969 445.424H118.033L119.079 441.925L121.105 435.205H121.553L118.268 446H117.713L115.687 439.429L114.599 435.931H114.535L113.447 439.429L111.42 446H110.865ZM137.979 446H136.336C136.194 446 136.073 445.979 135.973 445.936C135.888 445.893 135.824 445.829 135.781 445.744C135.739 445.644 135.717 445.524 135.717 445.381V444.144L135.931 444.357H135.653C135.383 444.869 134.971 445.317 134.416 445.701C133.876 446.071 133.108 446.256 132.112 446.256C131.003 446.256 130.142 445.993 129.531 445.467C128.933 444.94 128.635 444.194 128.635 443.227C128.635 442.629 128.756 442.096 128.997 441.627C129.253 441.157 129.673 440.795 130.256 440.539C130.853 440.268 131.664 440.133 132.688 440.133H135.717V438.555C135.717 437.445 135.454 436.635 134.928 436.123C134.416 435.611 133.655 435.355 132.645 435.355C131.835 435.355 131.159 435.518 130.619 435.845C130.092 436.158 129.68 436.67 129.381 437.381L128.997 437.211C129.296 436.514 129.73 435.966 130.299 435.568C130.868 435.156 131.65 434.949 132.645 434.949C133.826 434.949 134.708 435.255 135.291 435.867C135.874 436.478 136.165 437.353 136.165 438.491V445.595H137.979V446ZM135.717 440.517H132.709C131.444 440.517 130.526 440.738 129.957 441.179C129.403 441.62 129.125 442.196 129.125 442.907V443.547C129.125 444.286 129.403 444.855 129.957 445.253C130.526 445.652 131.244 445.851 132.112 445.851C132.752 445.851 133.342 445.744 133.883 445.531C134.437 445.303 134.878 444.969 135.205 444.528C135.547 444.073 135.717 443.511 135.717 442.843V440.517ZM140.636 446V430.213H141.084V436.869H141.148C141.375 436.4 141.774 435.966 142.343 435.568C142.926 435.156 143.694 434.949 144.647 434.949C145.599 434.949 146.41 435.163 147.079 435.589C147.747 436.002 148.259 436.628 148.615 437.467C148.984 438.306 149.169 439.351 149.169 440.603C149.169 441.854 148.984 442.9 148.615 443.739C148.259 444.578 147.747 445.211 147.079 445.637C146.41 446.05 145.599 446.256 144.647 446.256C143.694 446.256 142.926 446.057 142.343 445.659C141.774 445.246 141.375 444.805 141.148 444.336H141.084V446H140.636ZM144.647 445.851C145.941 445.851 146.936 445.431 147.633 444.592C148.33 443.739 148.679 442.58 148.679 441.115V440.091C148.679 438.626 148.33 437.474 147.633 436.635C146.936 435.781 145.941 435.355 144.647 435.355C144.021 435.355 143.438 435.476 142.897 435.717C142.357 435.959 141.916 436.3 141.575 436.741C141.247 437.168 141.084 437.673 141.084 438.256V442.949C141.084 443.518 141.247 444.023 141.575 444.464C141.916 444.905 142.357 445.246 142.897 445.488C143.438 445.73 144.021 445.851 144.647 445.851ZM156.218 446.256C155.28 446.256 154.476 446.043 153.808 445.616C153.139 445.189 152.627 444.556 152.272 443.717C151.916 442.878 151.738 441.84 151.738 440.603C151.738 439.351 151.916 438.313 152.272 437.488C152.627 436.649 153.139 436.016 153.808 435.589C154.476 435.163 155.28 434.949 156.218 434.949C157.157 434.949 157.961 435.163 158.629 435.589C159.297 436.016 159.809 436.649 160.165 437.488C160.521 438.313 160.698 439.351 160.698 440.603C160.698 441.84 160.521 442.878 160.165 443.717C159.809 444.556 159.297 445.189 158.629 445.616C157.961 446.043 157.157 446.256 156.218 446.256ZM156.218 445.851C157.498 445.851 158.48 445.424 159.162 444.571C159.859 443.717 160.208 442.565 160.208 441.115V440.091C160.208 438.64 159.859 437.488 159.162 436.635C158.48 435.781 157.498 435.355 156.218 435.355C154.938 435.355 153.95 435.781 153.253 436.635C152.57 437.488 152.229 438.64 152.229 440.091V441.115C152.229 442.565 152.57 443.717 153.253 444.571C153.95 445.424 154.938 445.851 156.218 445.851ZM171.153 446V444.379H171.089C170.904 444.862 170.534 445.296 169.979 445.68C169.439 446.064 168.685 446.256 167.718 446.256C166.509 446.256 165.585 445.908 164.945 445.211C164.319 444.5 164.006 443.476 164.006 442.139V435.205H164.454V442.053C164.454 443.362 164.738 444.322 165.307 444.933C165.89 445.545 166.708 445.851 167.761 445.851C168.358 445.851 168.913 445.744 169.425 445.531C169.937 445.317 170.349 444.997 170.662 444.571C170.989 444.13 171.153 443.582 171.153 442.928V435.205H171.601V446H171.153ZM179.359 446H177.119C176.905 446 176.749 445.95 176.649 445.851C176.55 445.751 176.5 445.595 176.5 445.381V435.611H174.473V435.205H176.009C176.208 435.205 176.336 435.163 176.393 435.077C176.464 434.992 176.5 434.857 176.5 434.672V432.133H176.948V435.205H179.529V435.611H176.948V445.595H179.359V446ZM187.719 446V430.213H188.167V436.869H188.231C188.459 436.4 188.857 435.966 189.426 435.568C190.009 435.156 190.777 434.949 191.73 434.949C192.683 434.949 193.493 435.163 194.162 435.589C194.83 436.002 195.342 436.628 195.698 437.467C196.068 438.306 196.253 439.351 196.253 440.603C196.253 441.854 196.068 442.9 195.698 443.739C195.342 444.578 194.83 445.211 194.162 445.637C193.493 446.05 192.683 446.256 191.73 446.256C190.777 446.256 190.009 446.057 189.426 445.659C188.857 445.246 188.459 444.805 188.231 444.336H188.167V446H187.719ZM191.73 445.851C193.024 445.851 194.02 445.431 194.717 444.592C195.413 443.739 195.762 442.58 195.762 441.115V440.091C195.762 438.626 195.413 437.474 194.717 436.635C194.02 435.781 193.024 435.355 191.73 435.355C191.104 435.355 190.521 435.476 189.981 435.717C189.44 435.959 188.999 436.3 188.658 436.741C188.331 437.168 188.167 437.673 188.167 438.256V442.949C188.167 443.518 188.331 444.023 188.658 444.464C188.999 444.905 189.44 445.246 189.981 445.488C190.521 445.73 191.104 445.851 191.73 445.851ZM206.715 446V444.379H206.651C206.466 444.862 206.096 445.296 205.542 445.68C205.001 446.064 204.247 446.256 203.28 446.256C202.071 446.256 201.147 445.908 200.507 445.211C199.881 444.5 199.568 443.476 199.568 442.139V435.205H200.016V442.053C200.016 443.362 200.301 444.322 200.87 444.933C201.453 445.545 202.271 445.851 203.323 445.851C203.92 445.851 204.475 445.744 204.987 445.531C205.499 445.317 205.911 444.997 206.224 444.571C206.551 444.13 206.715 443.582 206.715 442.928V435.205H207.163V446H206.715ZM214.921 446H212.681C212.468 446 212.311 445.95 212.212 445.851C212.112 445.751 212.063 445.595 212.063 445.381V435.611H210.036V435.205H211.572C211.771 435.205 211.899 435.163 211.956 435.077C212.027 434.992 212.063 434.857 212.063 434.672V432.133H212.511V435.205H215.092V435.611H212.511V445.595H214.921V446ZM227.527 446H222.492V445.595H224.775V431.515H222.492V431.109H227.527V431.515H225.244V445.595H227.527V446ZM243.194 446V444.379H243.13C242.945 444.862 242.576 445.296 242.021 445.68C241.48 446.064 240.727 446.256 239.76 446.256C238.551 446.256 237.626 445.908 236.986 445.211C236.36 444.5 236.048 443.476 236.048 442.139V435.205H236.496V442.053C236.496 443.362 236.78 444.322 237.349 444.933C237.932 445.545 238.75 445.851 239.802 445.851C240.4 445.851 240.954 445.744 241.466 445.531C241.978 445.317 242.391 444.997 242.704 444.571C243.031 444.13 243.194 443.582 243.194 442.928V435.205H243.642V446H243.194ZM250.91 446.256C250.042 446.256 249.281 446.1 248.627 445.787C247.987 445.474 247.418 444.969 246.92 444.272L247.304 444.016C247.802 444.684 248.328 445.161 248.883 445.445C249.452 445.716 250.127 445.851 250.91 445.851C251.919 445.851 252.687 445.637 253.214 445.211C253.754 444.77 254.024 444.151 254.024 443.355C254.024 442.544 253.79 441.947 253.32 441.563C252.865 441.179 252.19 440.916 251.294 440.773L250.355 440.624C249.729 440.524 249.182 440.368 248.712 440.155C248.257 439.927 247.902 439.621 247.646 439.237C247.404 438.839 247.283 438.327 247.283 437.701C247.283 436.791 247.61 436.108 248.264 435.653C248.933 435.184 249.743 434.949 250.696 434.949C251.322 434.949 251.855 435.028 252.296 435.184C252.737 435.326 253.114 435.518 253.427 435.76C253.754 435.988 254.031 436.236 254.259 436.507L253.918 436.805C253.591 436.436 253.185 436.101 252.702 435.803C252.232 435.504 251.571 435.355 250.718 435.355C249.822 435.355 249.096 435.554 248.542 435.952C248.001 436.35 247.731 436.926 247.731 437.68C247.731 438.476 247.951 439.06 248.392 439.429C248.847 439.785 249.53 440.041 250.44 440.197L251.379 440.347C252.318 440.489 253.064 440.788 253.619 441.243C254.188 441.684 254.472 442.38 254.472 443.333C254.472 443.945 254.323 444.471 254.024 444.912C253.74 445.353 253.335 445.687 252.808 445.915C252.282 446.142 251.649 446.256 250.91 446.256ZM261.532 446.256C260.593 446.256 259.783 446.043 259.1 445.616C258.431 445.189 257.912 444.556 257.543 443.717C257.187 442.878 257.009 441.84 257.009 440.603C257.009 439.365 257.187 438.327 257.543 437.488C257.898 436.649 258.403 436.016 259.057 435.589C259.726 435.163 260.522 434.949 261.447 434.949C262.314 434.949 263.075 435.17 263.729 435.611C264.383 436.037 264.895 436.656 265.265 437.467C265.635 438.263 265.82 439.216 265.82 440.325V440.539H257.5V441.115C257.5 442.565 257.848 443.717 258.545 444.571C259.256 445.424 260.252 445.851 261.532 445.851C262.442 445.851 263.21 445.63 263.836 445.189C264.462 444.734 264.938 444.073 265.265 443.205L265.649 443.355C265.336 444.236 264.831 444.94 264.135 445.467C263.438 445.993 262.57 446.256 261.532 446.256ZM261.447 435.355C260.607 435.355 259.889 435.547 259.292 435.931C258.709 436.315 258.261 436.862 257.948 437.573C257.649 438.284 257.5 439.124 257.5 440.091V440.133H265.329V440.048C265.329 439.095 265.166 438.27 264.839 437.573C264.511 436.876 264.056 436.336 263.473 435.952C262.904 435.554 262.229 435.355 261.447 435.355ZM274.599 431.643C274.414 431.643 274.286 431.6 274.215 431.515C274.144 431.415 274.109 431.308 274.109 431.195V431.045C274.109 430.932 274.144 430.832 274.215 430.747C274.286 430.647 274.414 430.597 274.599 430.597C274.784 430.597 274.912 430.647 274.983 430.747C275.054 430.832 275.09 430.932 275.09 431.045V431.195C275.09 431.308 275.054 431.415 274.983 431.515C274.912 431.6 274.784 431.643 274.599 431.643ZM274.386 446V435.205H274.834V446H274.386ZM282.609 446H280.369C280.155 446 279.999 445.95 279.899 445.851C279.8 445.751 279.75 445.595 279.75 445.381V435.611H277.723V435.205H279.259C279.458 435.205 279.586 435.163 279.643 435.077C279.714 434.992 279.75 434.857 279.75 434.672V432.133H280.198V435.205H282.779V435.611H280.198V445.595H282.609V446ZM286.456 446.107C286.271 446.107 286.129 446.064 286.029 445.979C285.93 445.879 285.88 445.744 285.88 445.573V445.403C285.88 445.232 285.93 445.104 286.029 445.019C286.129 444.919 286.271 444.869 286.456 444.869C286.655 444.869 286.797 444.919 286.883 445.019C286.982 445.104 287.032 445.232 287.032 445.403V445.573C287.032 445.744 286.982 445.879 286.883 445.979C286.797 446.064 286.655 446.107 286.456 446.107ZM84.9893 474V466.661H75.7733V474H75.304V459.109H75.7733V466.235H84.9893V459.109H85.4587V474H84.9893ZM93.5308 474.256C92.5922 474.256 91.7886 474.043 91.1202 473.616C90.4517 473.189 89.9397 472.556 89.5842 471.717C89.2286 470.878 89.0508 469.84 89.0508 468.603C89.0508 467.351 89.2286 466.313 89.5842 465.488C89.9397 464.649 90.4517 464.016 91.1202 463.589C91.7886 463.163 92.5922 462.949 93.5308 462.949C94.4695 462.949 95.2731 463.163 95.9415 463.589C96.6099 464.016 97.1219 464.649 97.4775 465.488C97.8331 466.313 98.0108 467.351 98.0108 468.603C98.0108 469.84 97.8331 470.878 97.4775 471.717C97.1219 472.556 96.6099 473.189 95.9415 473.616C95.2731 474.043 94.4695 474.256 93.5308 474.256ZM93.5308 473.851C94.8108 473.851 95.7922 473.424 96.4748 472.571C97.1717 471.717 97.5202 470.565 97.5202 469.115V468.091C97.5202 466.64 97.1717 465.488 96.4748 464.635C95.7922 463.781 94.8108 463.355 93.5308 463.355C92.2508 463.355 91.2624 463.781 90.5655 464.635C89.8828 465.488 89.5415 466.64 89.5415 468.091V469.115C89.5415 470.565 89.8828 471.717 90.5655 472.571C91.2624 473.424 92.2508 473.851 93.5308 473.851ZM101.532 478.267V463.205H101.98V464.869H102.044C102.271 464.4 102.669 463.966 103.238 463.568C103.821 463.156 104.589 462.949 105.542 462.949C106.495 462.949 107.306 463.163 107.974 463.589C108.643 464.002 109.155 464.628 109.51 465.467C109.88 466.306 110.065 467.351 110.065 468.603C110.065 469.854 109.88 470.9 109.51 471.739C109.155 472.578 108.643 473.211 107.974 473.637C107.306 474.05 106.495 474.256 105.542 474.256C104.589 474.256 103.821 474.057 103.238 473.659C102.669 473.246 102.271 472.805 102.044 472.336H101.98V478.267H101.532ZM105.542 473.851C106.837 473.851 107.832 473.431 108.529 472.592C109.226 471.739 109.574 470.58 109.574 469.115V468.091C109.574 466.626 109.226 465.474 108.529 464.635C107.832 463.781 106.837 463.355 105.542 463.355C104.917 463.355 104.333 463.476 103.793 463.717C103.253 463.959 102.812 464.3 102.47 464.741C102.143 465.168 101.98 465.673 101.98 466.256V470.949C101.98 471.518 102.143 472.023 102.47 472.464C102.812 472.905 103.253 473.246 103.793 473.488C104.333 473.73 104.917 473.851 105.542 473.851ZM117.157 474.256C116.218 474.256 115.408 474.043 114.725 473.616C114.056 473.189 113.537 472.556 113.168 471.717C112.812 470.878 112.634 469.84 112.634 468.603C112.634 467.365 112.812 466.327 113.168 465.488C113.523 464.649 114.028 464.016 114.682 463.589C115.351 463.163 116.147 462.949 117.072 462.949C117.939 462.949 118.7 463.17 119.354 463.611C120.008 464.037 120.52 464.656 120.89 465.467C121.26 466.263 121.445 467.216 121.445 468.325V468.539H113.125V469.115C113.125 470.565 113.473 471.717 114.17 472.571C114.881 473.424 115.877 473.851 117.157 473.851C118.067 473.851 118.835 473.63 119.461 473.189C120.087 472.734 120.563 472.073 120.89 471.205L121.274 471.355C120.961 472.236 120.456 472.94 119.76 473.467C119.063 473.993 118.195 474.256 117.157 474.256ZM117.072 463.355C116.232 463.355 115.514 463.547 114.917 463.931C114.334 464.315 113.886 464.862 113.573 465.573C113.274 466.284 113.125 467.124 113.125 468.091V468.133H120.954V468.048C120.954 467.095 120.791 466.27 120.464 465.573C120.136 464.876 119.681 464.336 119.098 463.952C118.529 463.554 117.854 463.355 117.072 463.355ZM133.979 469.861L136.432 463.205H136.88L131.44 477.861C131.412 477.947 131.362 478.018 131.291 478.075C131.234 478.146 131.163 478.196 131.078 478.224C130.992 478.252 130.893 478.267 130.779 478.267H128.987V477.861H130.971L132.379 474.149L128.304 463.205H128.774L131.227 469.861L132.571 473.488H132.635L133.979 469.861ZM142.968 474.256C142.03 474.256 141.226 474.043 140.558 473.616C139.889 473.189 139.377 472.556 139.022 471.717C138.666 470.878 138.488 469.84 138.488 468.603C138.488 467.351 138.666 466.313 139.022 465.488C139.377 464.649 139.889 464.016 140.558 463.589C141.226 463.163 142.03 462.949 142.968 462.949C143.907 462.949 144.711 463.163 145.379 463.589C146.047 464.016 146.559 464.649 146.915 465.488C147.271 466.313 147.448 467.351 147.448 468.603C147.448 469.84 147.271 470.878 146.915 471.717C146.559 472.556 146.047 473.189 145.379 473.616C144.711 474.043 143.907 474.256 142.968 474.256ZM142.968 473.851C144.248 473.851 145.23 473.424 145.912 472.571C146.609 471.717 146.958 470.565 146.958 469.115V468.091C146.958 466.64 146.609 465.488 145.912 464.635C145.23 463.781 144.248 463.355 142.968 463.355C141.688 463.355 140.7 463.781 140.003 464.635C139.32 465.488 138.979 466.64 138.979 468.091V469.115C138.979 470.565 139.32 471.717 140.003 472.571C140.7 473.424 141.688 473.851 142.968 473.851ZM157.903 474V472.379H157.839C157.654 472.862 157.284 473.296 156.729 473.68C156.189 474.064 155.435 474.256 154.468 474.256C153.259 474.256 152.335 473.908 151.695 473.211C151.069 472.5 150.756 471.476 150.756 470.139V463.205H151.204V470.053C151.204 471.362 151.488 472.322 152.057 472.933C152.64 473.545 153.458 473.851 154.511 473.851C155.108 473.851 155.663 473.744 156.175 473.531C156.687 473.317 157.099 472.997 157.412 472.571C157.739 472.13 157.903 471.582 157.903 470.928V463.205H158.351V474H157.903ZM170.126 474H168.484C168.27 474 168.114 473.95 168.014 473.851C167.915 473.751 167.865 473.595 167.865 473.381V458.213H168.313V473.595H170.126V474ZM173.433 459.643C173.248 459.643 173.12 459.6 173.049 459.515C172.977 459.415 172.942 459.308 172.942 459.195V459.045C172.942 458.932 172.977 458.832 173.049 458.747C173.12 458.647 173.248 458.597 173.433 458.597C173.617 458.597 173.745 458.647 173.817 458.747C173.888 458.832 173.923 458.932 173.923 459.045V459.195C173.923 459.308 173.888 459.415 173.817 459.515C173.745 459.6 173.617 459.643 173.433 459.643ZM173.219 474V463.205H173.667V474H173.219ZM178.157 474V458.213H178.605V467.621V469.307H178.669L180.375 467.621L184.791 463.205H185.389L180.802 467.771L185.965 474H185.41L180.482 468.091L178.605 469.947V474H178.157ZM191.969 474.256C191.031 474.256 190.22 474.043 189.537 473.616C188.869 473.189 188.35 472.556 187.98 471.717C187.624 470.878 187.447 469.84 187.447 468.603C187.447 467.365 187.624 466.327 187.98 465.488C188.336 464.649 188.84 464.016 189.495 463.589C190.163 463.163 190.96 462.949 191.884 462.949C192.752 462.949 193.512 463.17 194.167 463.611C194.821 464.037 195.333 464.656 195.703 465.467C196.072 466.263 196.257 467.216 196.257 468.325V468.539H187.937V469.115C187.937 470.565 188.286 471.717 188.983 472.571C189.694 473.424 190.689 473.851 191.969 473.851C192.88 473.851 193.648 473.63 194.273 473.189C194.899 472.734 195.376 472.073 195.703 471.205L196.087 471.355C195.774 472.236 195.269 472.94 194.572 473.467C193.875 473.993 193.008 474.256 191.969 474.256ZM191.884 463.355C191.045 463.355 190.327 463.547 189.729 463.931C189.146 464.315 188.698 464.862 188.385 465.573C188.087 466.284 187.937 467.124 187.937 468.091V468.133H195.767V468.048C195.767 467.095 195.603 466.27 195.276 465.573C194.949 464.876 194.494 464.336 193.911 463.952C193.342 463.554 192.666 463.355 191.884 463.355ZM205.037 459.643C204.852 459.643 204.724 459.6 204.653 459.515C204.582 459.415 204.546 459.308 204.546 459.195V459.045C204.546 458.932 204.582 458.832 204.653 458.747C204.724 458.647 204.852 458.597 205.037 458.597C205.222 458.597 205.35 458.647 205.421 458.747C205.492 458.832 205.527 458.932 205.527 459.045V459.195C205.527 459.308 205.492 459.415 205.421 459.515C205.35 459.6 205.222 459.643 205.037 459.643ZM204.823 474V463.205H205.271V474H204.823ZM213.046 474H210.806C210.593 474 210.436 473.95 210.337 473.851C210.237 473.751 210.188 473.595 210.188 473.381V463.611H208.161V463.205H209.697C209.896 463.205 210.024 463.163 210.081 463.077C210.152 462.992 210.188 462.857 210.188 462.672V460.133H210.636V463.205H213.217V463.611H210.636V473.595H213.046V474ZM224.692 474H222.452C222.239 474 222.082 473.95 221.983 473.851C221.883 473.751 221.833 473.595 221.833 473.381V463.611H219.807V463.205H221.343C221.542 463.205 221.67 463.163 221.727 463.077C221.798 462.992 221.833 462.857 221.833 462.672V460.133H222.281V463.205H224.863V463.611H222.281V473.595H224.692V474ZM231.427 474.256C230.488 474.256 229.684 474.043 229.016 473.616C228.348 473.189 227.836 472.556 227.48 471.717C227.124 470.878 226.947 469.84 226.947 468.603C226.947 467.351 227.124 466.313 227.48 465.488C227.836 464.649 228.348 464.016 229.016 463.589C229.684 463.163 230.488 462.949 231.427 462.949C232.365 462.949 233.169 463.163 233.837 463.589C234.506 464.016 235.018 464.649 235.373 465.488C235.729 466.313 235.907 467.351 235.907 468.603C235.907 469.84 235.729 470.878 235.373 471.717C235.018 472.556 234.506 473.189 233.837 473.616C233.169 474.043 232.365 474.256 231.427 474.256ZM231.427 473.851C232.707 473.851 233.688 473.424 234.371 472.571C235.068 471.717 235.416 470.565 235.416 469.115V468.091C235.416 466.64 235.068 465.488 234.371 464.635C233.688 463.781 232.707 463.355 231.427 463.355C230.147 463.355 229.158 463.781 228.461 464.635C227.779 465.488 227.437 466.64 227.437 468.091V469.115C227.437 470.565 227.779 471.717 228.461 472.571C229.158 473.424 230.147 473.851 231.427 473.851ZM242.948 474.256C242.009 474.256 241.205 474.043 240.537 473.616C239.868 473.189 239.356 472.556 239.001 471.717C238.645 470.878 238.468 469.84 238.468 468.603C238.468 467.351 238.645 466.313 239.001 465.488C239.356 464.649 239.868 464.016 240.537 463.589C241.205 463.163 242.009 462.949 242.948 462.949C243.886 462.949 244.69 463.163 245.358 463.589C246.027 464.016 246.539 464.649 246.894 465.488C247.25 466.313 247.428 467.351 247.428 468.603C247.428 469.84 247.25 470.878 246.894 471.717C246.539 472.556 246.027 473.189 245.358 473.616C244.69 474.043 243.886 474.256 242.948 474.256ZM242.948 473.851C244.228 473.851 245.209 473.424 245.892 472.571C246.588 471.717 246.937 470.565 246.937 469.115V468.091C246.937 466.64 246.588 465.488 245.892 464.635C245.209 463.781 244.228 463.355 242.948 463.355C241.668 463.355 240.679 463.781 239.982 464.635C239.3 465.488 238.958 466.64 238.958 468.091V469.115C238.958 470.565 239.3 471.717 239.982 472.571C240.679 473.424 241.668 473.851 242.948 473.851ZM250.748 474.107C250.563 474.107 250.42 474.064 250.321 473.979C250.221 473.879 250.172 473.744 250.172 473.573V473.403C250.172 473.232 250.221 473.104 250.321 473.019C250.42 472.919 250.563 472.869 250.748 472.869C250.947 472.869 251.089 472.919 251.174 473.019C251.274 473.104 251.324 473.232 251.324 473.403V473.573C251.324 473.744 251.274 473.879 251.174 473.979C251.089 474.064 250.947 474.107 250.748 474.107Z" fill="white"/>
<path d="M218.061 579.256C216.881 579.256 215.871 578.972 215.032 578.403C214.193 577.82 213.546 576.959 213.091 575.821C212.65 574.684 212.429 573.268 212.429 571.576C212.429 569.884 212.65 568.461 213.091 567.309C213.546 566.157 214.193 565.297 215.032 564.728C215.871 564.145 216.881 563.853 218.061 563.853C219.199 563.853 220.166 564.138 220.963 564.707C221.773 565.261 222.385 566.008 222.797 566.947L222.136 567.309C221.78 566.456 221.254 565.788 220.557 565.304C219.86 564.806 219.028 564.557 218.061 564.557C216.582 564.557 215.416 565.098 214.563 566.179C213.709 567.26 213.283 568.86 213.283 570.979V572.173C213.283 574.292 213.709 575.885 214.563 576.952C215.416 578.019 216.582 578.552 218.061 578.552C219.1 578.552 219.974 578.289 220.685 577.763C221.396 577.236 221.923 576.525 222.264 575.629L222.904 575.971C222.506 576.966 221.887 577.763 221.048 578.36C220.223 578.957 219.228 579.256 218.061 579.256ZM229.886 579.256C228.947 579.256 228.13 579.036 227.433 578.595C226.75 578.154 226.224 577.514 225.854 576.675C225.484 575.836 225.299 574.804 225.299 573.581C225.299 572.344 225.484 571.306 225.854 570.467C226.224 569.628 226.75 568.995 227.433 568.568C228.13 568.127 228.947 567.907 229.886 567.907C230.839 567.907 231.657 568.127 232.339 568.568C233.036 568.995 233.57 569.628 233.939 570.467C234.309 571.306 234.494 572.344 234.494 573.581C234.494 574.804 234.309 575.836 233.939 576.675C233.57 577.514 233.036 578.154 232.339 578.595C231.657 579.036 230.839 579.256 229.886 579.256ZM229.886 578.595C231.081 578.595 232.012 578.204 232.681 577.421C233.349 576.625 233.683 575.537 233.683 574.157V573.005C233.683 571.612 233.349 570.524 232.681 569.741C232.012 568.959 231.081 568.568 229.886 568.568C228.706 568.568 227.781 568.959 227.113 569.741C226.444 570.524 226.11 571.612 226.11 573.005V574.157C226.11 575.537 226.444 576.625 227.113 577.421C227.781 578.204 228.706 578.595 229.886 578.595ZM238.588 579H237.842V568.163H238.588V569.827H238.652C238.88 569.3 239.257 568.852 239.783 568.483C240.309 568.099 241.042 567.907 241.98 567.907C243.161 567.907 244.071 568.262 244.711 568.973C245.351 569.67 245.671 570.694 245.671 572.045V579H244.924V572.173C244.924 570.936 244.654 570.026 244.114 569.443C243.587 568.86 242.819 568.568 241.81 568.568C241.255 568.568 240.729 568.668 240.231 568.867C239.747 569.066 239.349 569.372 239.036 569.784C238.738 570.182 238.588 570.687 238.588 571.299V579ZM253.342 579H251.145C250.832 579 250.597 578.922 250.441 578.765C250.299 578.609 250.228 578.388 250.228 578.104V568.824H248.265V568.163H249.673C249.915 568.163 250.071 568.113 250.142 568.013C250.228 567.914 250.27 567.743 250.27 567.501V565.091H250.974V568.163H253.513V568.824H250.974V578.339H253.342V579ZM256.954 564.835C256.741 564.835 256.585 564.778 256.485 564.664C256.385 564.55 256.336 564.415 256.336 564.259V564.067C256.336 563.924 256.385 563.796 256.485 563.683C256.585 563.569 256.741 563.512 256.954 563.512C257.182 563.512 257.345 563.569 257.445 563.683C257.545 563.796 257.594 563.924 257.594 564.067V564.259C257.594 564.415 257.545 564.55 257.445 564.664C257.345 564.778 257.182 564.835 256.954 564.835ZM256.592 579V568.163H257.338V579H256.592ZM262.359 579H261.613V568.163H262.359V569.827H262.423C262.651 569.3 263.028 568.852 263.554 568.483C264.08 568.099 264.813 567.907 265.751 567.907C266.932 567.907 267.842 568.262 268.482 568.973C269.122 569.67 269.442 570.694 269.442 572.045V579H268.695V572.173C268.695 570.936 268.425 570.026 267.885 569.443C267.358 568.86 266.59 568.568 265.581 568.568C265.026 568.568 264.5 568.668 264.002 568.867C263.518 569.066 263.12 569.372 262.807 569.784C262.509 570.182 262.359 570.687 262.359 571.299V579ZM280.441 579V577.336H280.356C280.171 577.834 279.815 578.282 279.289 578.68C278.763 579.064 278.016 579.256 277.049 579.256C275.869 579.256 274.951 578.9 274.297 578.189C273.657 577.478 273.337 576.454 273.337 575.117V568.163H274.084V574.989C274.084 576.212 274.354 577.116 274.895 577.699C275.435 578.282 276.21 578.573 277.22 578.573C277.775 578.573 278.294 578.481 278.777 578.296C279.275 578.097 279.673 577.798 279.972 577.4C280.285 576.988 280.441 576.468 280.441 575.843V568.163H281.188V579H280.441ZM289.158 579.256C288.205 579.256 287.38 579.036 286.683 578.595C286.001 578.154 285.467 577.514 285.083 576.675C284.713 575.836 284.529 574.804 284.529 573.581C284.529 572.358 284.713 571.327 285.083 570.488C285.453 569.635 285.972 568.995 286.641 568.568C287.323 568.127 288.141 567.907 289.094 567.907C289.976 567.907 290.751 568.127 291.419 568.568C292.088 569.009 292.607 569.635 292.977 570.445C293.361 571.242 293.553 572.188 293.553 573.283V573.624H285.318V574.2C285.318 575.523 285.652 576.589 286.321 577.4C287.003 578.196 287.956 578.595 289.179 578.595C290.033 578.595 290.758 578.388 291.355 577.976C291.967 577.549 292.429 576.931 292.742 576.12L293.318 576.44C293.005 577.293 292.493 577.976 291.782 578.488C291.071 579 290.196 579.256 289.158 579.256ZM289.094 568.547C288.297 568.547 287.615 568.732 287.046 569.101C286.491 569.457 286.065 569.969 285.766 570.637C285.467 571.292 285.318 572.06 285.318 572.941V573.027H292.742V572.899C292.742 572.017 292.585 571.256 292.273 570.616C291.974 569.962 291.547 569.457 290.993 569.101C290.452 568.732 289.819 568.547 289.094 568.547Z" fill="white"/>
<circle cx="327" cy="571" r="25" fill="#10B981"/>
<g filter="url(#filter1_d_49_1056)">
<path d="M340.061 572.061C340.646 571.475 340.646 570.525 340.061 569.939L330.515 560.393C329.929 559.808 328.979 559.808 328.393 560.393C327.808 560.979 327.808 561.929 328.393 562.515L336.879 571L328.393 579.485C327.808 580.071 327.808 581.021 328.393 581.607C328.979 582.192 329.929 582.192 330.515 581.607L340.061 572.061ZM315 571V572.5H339V571V569.5H315V571Z" fill="#FBBF24"/>
</g>
<defs>
<filter id="filter0_d_49_1056" x="127.432" y="83.6484" width="33.1371" height="33.1367" filterUnits="userSpaceOnUse" color-interpolation-filters="sRGB">
<feFlood flood-opacity="0" result="BackgroundImageFix"/>
<feColorMatrix in="SourceAlpha" type="matrix" values="0 0 0 0 0 0 0 0 0 0 0 0 0 0 0 0 0 0 127 0" result="hardAlpha"/>
<feOffset dy="4"/>
<feGaussianBlur stdDeviation="2"/>
<feComposite in2="hardAlpha" operator="out"/>
<feColorMatrix type="matrix" values="0 0 0 0 0 0 0 0 0 0 0 0 0 0 0 0 0 0 0.25 0"/>
<feBlend mode="normal" in2="BackgroundImageFix" result="effect1_dropShadow_49_1056"/>
<feBlend mode="normal" in="SourceGraphic" in2="effect1_dropShadow_49_1056" result="shape"/>
</filter>
<filter id="filter1_d_49_1056" x="311" y="559.954" width="33.5" height="30.0919" filterUnits="userSpaceOnUse" color-interpolation-filters="sRGB">
<feFlood flood-opacity="0" result="BackgroundImageFix"/>
<feColorMatrix in="SourceAlpha" type="matrix" values="0 0 0 0 0 0 0 0 0 0 0 0 0 0 0 0 0 0 127 0" result="hardAlpha"/>
<feOffset dy="4"/>
<feGaussianBlur stdDeviation="2"/>
<feComposite in2="hardAlpha" operator="out"/>
<feColorMatrix type="matrix" values="0 0 0 0 0 0 0 0 0 0 0 0 0 0 0 0 0 0 0.25 0"/>
<feBlend mode="normal" in2="BackgroundImageFix" result="effect1_dropShadow_49_1056"/>
<feBlend mode="normal" in="SourceGraphic" in2="effect1_dropShadow_49_1056" result="shape"/>
</filter>
</defs>
</svg>
